<?xml version="1.0" encoding="utf-8"?>
<!-- Generator: Adobe Illustrator 14.0.0, SVG Export Plug-In  -->
<!DOCTYPE svg PUBLIC "-//W3C//DTD SVG 1.1//EN" "http://www.w3.org/Graphics/SVG/1.1/DTD/svg11.dtd" [
	<!ENTITY ns_flows "http://ns.adobe.com/Flows/1.0/">
]>
<svg version="1.1"
	 xmlns="http://www.w3.org/2000/svg" xmlns:xlink="http://www.w3.org/1999/xlink" xmlns:a="http://ns.adobe.com/AdobeSVGViewerExtensions/3.0/"
	 x="0px" y="0px" width="196px" height="62px" viewBox="-1.222 -1.008 196 62" enable-background="new -1.222 -1.008 196 62"
	 xml:space="preserve">
<defs>
</defs>
<path stroke="#000000" stroke-width="0.3967" d="M17.238,19.405c-0.784-0.816-1.607-1.435-2.47-1.859
	c-0.864-0.424-1.892-0.636-3.083-0.636c-1.162,0-2.174,0.211-3.037,0.636c-0.863,0.424-1.586,1.004-2.166,1.741
	c-0.58,0.737-1.02,1.585-1.317,2.542c-0.299,0.958-0.448,1.954-0.448,2.99s0.172,2.017,0.518,2.941
	c0.344,0.927,0.832,1.735,1.459,2.426c0.628,0.689,1.382,1.232,2.26,1.624c0.879,0.393,1.866,0.587,2.966,0.587
	c1.192,0,2.212-0.211,3.059-0.635c0.848-0.423,1.632-1.042,2.355-1.859l3.013,3.013c-1.1,1.225-2.378,2.102-3.837,2.636
	c-1.459,0.533-3.006,0.8-4.637,0.8c-1.726,0-3.303-0.282-4.731-0.848c-1.428-0.564-2.659-1.356-3.695-2.376
	c-1.036-1.021-1.836-2.244-2.401-3.673c-0.564-1.428-0.847-3.004-0.847-4.73c0-1.727,0.282-3.311,0.847-4.755
	c0.565-1.443,1.358-2.683,2.378-3.719c1.019-1.036,2.243-1.842,3.672-2.425c1.427-0.58,3.019-0.87,4.777-0.87
	c1.631,0,3.193,0.29,4.685,0.87c1.49,0.583,2.785,1.467,3.883,2.661L17.238,19.405z"/>
<path stroke="#000000" stroke-width="0.3967" d="M23.208,24.631c0-1.633,0.305-3.154,0.917-4.566
	c0.612-1.414,1.451-2.652,2.518-3.719c1.066-1.067,2.323-1.907,3.766-2.52c1.443-0.611,2.996-0.918,4.66-0.918
	s3.217,0.307,4.661,0.918c1.443,0.613,2.699,1.452,3.767,2.52c1.066,1.066,1.906,2.305,2.518,3.719
	c0.611,1.412,0.917,2.934,0.917,4.566c0,1.631-0.306,3.163-0.917,4.589c-0.612,1.429-1.452,2.669-2.518,3.719
	c-1.068,1.051-2.324,1.882-3.767,2.494c-1.443,0.612-2.997,0.919-4.661,0.919s-3.217-0.307-4.66-0.919
	c-1.443-0.612-2.7-1.443-3.766-2.494c-1.067-1.05-1.906-2.291-2.518-3.719C23.513,27.793,23.208,26.262,23.208,24.631z
	 M27.726,24.631c0,1.129,0.172,2.173,0.518,3.129c0.345,0.958,0.832,1.774,1.459,2.449c0.628,0.676,1.397,1.209,2.308,1.601
	c0.909,0.393,1.929,0.587,3.059,0.587c1.129,0,2.15-0.195,3.06-0.587c0.91-0.392,1.678-0.925,2.308-1.601
	c0.626-0.674,1.113-1.491,1.458-2.449c0.345-0.956,0.518-2,0.518-3.129c0-1.13-0.173-2.173-0.518-3.131
	c-0.346-0.956-0.832-1.772-1.458-2.447c-0.629-0.674-1.398-1.208-2.308-1.6c-0.91-0.394-1.931-0.589-3.06-0.589
	c-1.13,0-2.15,0.195-3.059,0.589c-0.911,0.393-1.68,0.926-2.308,1.6c-0.627,0.675-1.114,1.491-1.459,2.447
	C27.898,22.458,27.726,23.501,27.726,24.631z"/>
<path stroke="#000000" stroke-width="0.3967" d="M52.024,13.473h3.954v3.484h0.094c0.093-0.314,0.336-0.707,0.729-1.177
	c0.393-0.47,0.894-0.918,1.506-1.341c0.612-0.424,1.333-0.784,2.165-1.083c0.832-0.299,1.75-0.448,2.755-0.448
	c1.662,0,3.058,0.346,4.189,1.036c1.129,0.691,2.055,1.727,2.777,3.108c0.722-1.381,1.742-2.417,3.06-3.108
	c1.317-0.69,2.651-1.036,4.002-1.036c1.725,0,3.137,0.283,4.236,0.848c1.099,0.565,1.961,1.311,2.589,2.235
	c0.627,0.927,1.059,1.979,1.295,3.154c0.235,1.177,0.353,2.395,0.353,3.65v10.873v2.118H83.61c0,0-2.118,0.038-2.118-2.108
	c0-2.145,0-10.32,0-10.32c0-0.846-0.054-1.663-0.164-2.447c-0.111-0.783-0.339-1.474-0.683-2.071
	c-0.346-0.596-0.833-1.075-1.458-1.436c-0.629-0.36-1.46-0.541-2.496-0.541c-2.04,0-3.499,0.628-4.377,1.882
	c-0.879,1.255-1.319,2.873-1.319,4.85v12.191h-4.235V24.113c0-1.066-0.056-2.04-0.166-2.918c-0.111-0.879-0.33-1.64-0.659-2.283
	c-0.329-0.644-0.8-1.146-1.412-1.507c-0.612-0.36-1.436-0.541-2.471-0.541c-0.753,0-1.482,0.148-2.189,0.447
	c-0.707,0.299-1.326,0.746-1.859,1.341c-0.534,0.597-0.958,1.359-1.271,2.284c-0.313,0.926-0.47,2.017-0.47,3.272v11.58h-4.236
	V13.473z"/>
<path stroke="#000000" stroke-width="0.3967" d="M92.301,0.198h4.237v16.476h0.095c0.751-1.161,1.837-2.078,3.248-2.754
	c1.411-0.674,2.918-1.012,4.519-1.012c1.726,0,3.287,0.299,4.684,0.895s2.59,1.42,3.578,2.471c0.987,1.052,1.748,2.292,2.282,3.719
	c0.533,1.428,0.8,2.974,0.8,4.637c0,1.663-0.267,3.201-0.8,4.613c-0.534,1.412-1.295,2.652-2.282,3.719
	c-0.988,1.067-2.182,1.898-3.578,2.495c-1.396,0.596-2.958,0.895-4.684,0.895c-1.506,0-2.974-0.33-4.4-0.989
	c-1.428-0.659-2.552-1.583-3.366-2.777h-0.095v3.201h-4.237V0.198z M103.723,32.396c1.13,0,2.15-0.195,3.062-0.587
	c0.908-0.392,1.678-0.925,2.306-1.601c0.626-0.674,1.114-1.491,1.46-2.449c0.344-0.956,0.518-2,0.518-3.129
	c0-1.13-0.174-2.173-0.518-3.131c-0.346-0.956-0.834-1.772-1.46-2.447c-0.628-0.674-1.397-1.208-2.306-1.6
	c-0.911-0.394-1.932-0.589-3.062-0.589s-2.149,0.195-3.059,0.589c-0.909,0.393-1.679,0.926-2.306,1.6
	c-0.629,0.675-1.117,1.491-1.462,2.447c-0.346,0.958-0.518,2.001-0.518,3.131c0,1.129,0.172,2.173,0.518,3.129
	c0.345,0.958,0.833,1.774,1.462,2.449c0.627,0.676,1.396,1.209,2.306,1.601C101.573,32.202,102.593,32.396,103.723,32.396z"/>
<path stroke="#000000" stroke-width="0.3967" d="M118.288,13.473h4.897l6.607,17.417h0.094l6.338-17.417h4.519l-10.592,27.116
	c-0.375,0.972-0.767,1.859-1.173,2.658c-0.407,0.801-0.891,1.484-1.452,2.048c-0.562,0.565-1.242,1.004-2.039,1.319
	c-0.799,0.313-1.775,0.47-2.932,0.47c-0.624,0-1.258-0.04-1.898-0.118c-0.642-0.079-1.258-0.243-1.852-0.494l0.516-3.86
	c0.841,0.345,1.685,0.518,2.525,0.518c0.655,0,1.208-0.086,1.66-0.26c0.451-0.172,0.842-0.423,1.17-0.752
	c0.327-0.329,0.601-0.713,0.818-1.153c0.218-0.439,0.437-0.941,0.655-1.506l1.371-3.53L118.288,13.473z"/>
<path stroke="#000000" stroke-width="0.3967" d="M145.493,13.473h4.236v3.437h0.094c0.532-1.192,1.459-2.157,2.776-2.896
	c1.32-0.736,2.842-1.106,4.567-1.106c1.067,0,2.095,0.165,3.084,0.494c0.988,0.33,1.851,0.841,2.588,1.531
	c0.736,0.69,1.326,1.576,1.767,2.659c0.438,1.083,0.658,2.362,0.658,3.837v14.357c0,0,0.259,0-1.993,0
	c-2.254,0-2.244-2.244-2.244-2.244V22.606c0-1.035-0.14-1.922-0.423-2.661c-0.281-0.736-0.658-1.333-1.129-1.787
	c-0.472-0.455-1.012-0.784-1.624-0.989c-0.612-0.203-1.248-0.306-1.907-0.306c-0.88,0-1.695,0.14-2.448,0.424
	c-0.752,0.283-1.411,0.729-1.978,1.34c-0.564,0.612-1.004,1.39-1.317,2.332c-0.314,0.941-0.471,2.055-0.471,3.342v11.485h-4.236
	V13.473z"/>
<path stroke="#000000" stroke-width="0.3967" d="M174.853,26.892c0.104,0.968,0.408,1.827,0.917,2.577
	c0.508,0.75,1.134,1.369,1.881,1.856c0.746,0.487,1.589,0.84,2.527,1.053c0.938,0.215,1.893,0.271,2.86,0.166
	c1.31-0.142,2.416-0.569,3.317-1.282c0.899-0.712,1.702-1.611,2.407-2.696l3.445,2.09c-2.014,3.279-5.127,5.146-9.34,5.599
	c-1.746,0.188-3.361,0.062-4.846-0.377s-2.774-1.129-3.869-2.068c-1.096-0.939-1.985-2.09-2.668-3.452
	c-0.686-1.364-1.114-2.872-1.291-4.526c-0.179-1.653-0.058-3.221,0.367-4.703c0.426-1.482,1.087-2.8,1.988-3.956
	c0.9-1.155,2.022-2.103,3.361-2.848c1.341-0.744,2.838-1.205,4.491-1.382c1.966-0.212,3.665-0.048,5.096,0.492
	c1.433,0.541,2.644,1.317,3.637,2.33c0.993,1.014,1.76,2.195,2.3,3.54c0.539,1.349,0.887,2.739,1.041,4.174l0.161,1.497
	L174.853,26.892z M187.78,22.09c-0.132-0.933-0.373-1.775-0.722-2.527c-0.349-0.751-0.82-1.385-1.413-1.906
	c-0.594-0.521-1.305-0.901-2.137-1.144c-0.83-0.242-1.775-0.306-2.836-0.19c-1.029,0.111-1.952,0.407-2.769,0.89
	c-0.817,0.482-1.487,1.067-2.012,1.755c-0.527,0.688-0.912,1.434-1.157,2.232c-0.244,0.799-0.328,1.573-0.246,2.322L187.78,22.09z"
	/>
<path d="M5.353,47.458v2.061H5.19c-0.053-0.396-0.147-0.71-0.283-0.945c-0.137-0.234-0.331-0.42-0.583-0.558
	S3.812,47.81,3.542,47.81c-0.305,0-0.557,0.093-0.756,0.279c-0.199,0.187-0.299,0.398-0.299,0.635c0,0.182,0.063,0.347,0.189,0.497
	c0.182,0.22,0.614,0.513,1.296,0.879c0.557,0.299,0.937,0.528,1.14,0.688c0.204,0.16,0.36,0.348,0.471,0.565
	c0.109,0.217,0.165,0.444,0.165,0.681c0,0.451-0.175,0.84-0.525,1.167c-0.351,0.327-0.801,0.49-1.352,0.49
	c-0.173,0-0.335-0.013-0.488-0.04c-0.091-0.015-0.279-0.068-0.565-0.16c-0.285-0.093-0.466-0.139-0.542-0.139
	c-0.073,0-0.131,0.022-0.173,0.066c-0.043,0.044-0.074,0.135-0.095,0.272H1.846v-2.043h0.163c0.076,0.428,0.179,0.748,0.308,0.96
	c0.129,0.213,0.326,0.389,0.591,0.53s0.556,0.211,0.873,0.211c0.366,0,0.655-0.097,0.868-0.29s0.319-0.422,0.319-0.686
	c0-0.146-0.041-0.294-0.121-0.444c-0.081-0.149-0.206-0.289-0.376-0.417c-0.114-0.088-0.426-0.275-0.936-0.56
	c-0.51-0.286-0.873-0.514-1.087-0.684c-0.216-0.17-0.379-0.357-0.49-0.562s-0.167-0.431-0.167-0.677
	c0-0.428,0.164-0.796,0.492-1.105c0.328-0.309,0.746-0.463,1.252-0.463c0.316,0,0.652,0.078,1.006,0.233
	c0.164,0.073,0.28,0.11,0.347,0.11c0.076,0,0.138-0.022,0.187-0.068c0.048-0.045,0.087-0.137,0.116-0.275H5.353z"/>
<path d="M15.664,47.595v0.163c-0.155,0-0.281,0.028-0.378,0.083s-0.189,0.16-0.277,0.312c-0.059,0.103-0.151,0.347-0.277,0.734
	l-1.661,4.803h-0.176l-1.358-3.81l-1.349,3.81H10.03l-1.771-4.948c-0.132-0.369-0.215-0.587-0.25-0.655
	c-0.059-0.111-0.138-0.194-0.24-0.248c-0.101-0.054-0.238-0.082-0.411-0.082v-0.163h2.206v0.163H9.458
	c-0.155,0-0.274,0.035-0.356,0.105s-0.123,0.155-0.123,0.255c0,0.103,0.064,0.338,0.193,0.708l1.173,3.344l0.989-2.843l-0.176-0.501
	l-0.141-0.4c-0.062-0.146-0.13-0.275-0.207-0.387c-0.038-0.056-0.085-0.103-0.141-0.141c-0.073-0.053-0.146-0.091-0.22-0.114
	c-0.056-0.018-0.144-0.026-0.264-0.026v-0.163h2.32v0.163H12.35c-0.164,0-0.284,0.035-0.36,0.105s-0.114,0.166-0.114,0.286
	c0,0.149,0.066,0.41,0.198,0.782l1.143,3.239l1.134-3.283c0.129-0.363,0.193-0.615,0.193-0.756c0-0.067-0.021-0.13-0.063-0.189
	c-0.043-0.059-0.096-0.1-0.161-0.123c-0.111-0.041-0.256-0.062-0.435-0.062v-0.163H15.664z"/>
<path d="M20.239,53.391v0.163h-2.553v-0.163h0.211c0.246,0,0.425-0.072,0.536-0.215c0.07-0.094,0.105-0.319,0.105-0.677v-3.85
	c0-0.302-0.019-0.501-0.057-0.598c-0.029-0.073-0.089-0.136-0.18-0.189c-0.129-0.07-0.264-0.105-0.404-0.105h-0.211v-0.163h2.553
	v0.163h-0.215c-0.243,0-0.42,0.072-0.532,0.215c-0.073,0.094-0.11,0.319-0.11,0.677v3.85c0,0.302,0.019,0.501,0.057,0.598
	c0.029,0.073,0.091,0.136,0.185,0.189c0.126,0.07,0.259,0.105,0.4,0.105H20.239z"/>
<path d="M24.915,50.763v1.736c0,0.375,0.041,0.608,0.123,0.699c0.111,0.129,0.28,0.193,0.505,0.193h0.229v0.163h-2.553v-0.163h0.224
	c0.252,0,0.432-0.082,0.541-0.246c0.059-0.091,0.088-0.306,0.088-0.646v-3.85c0-0.375-0.04-0.608-0.119-0.699
	c-0.114-0.129-0.284-0.193-0.51-0.193h-0.224v-0.163h2.184c0.533,0,0.954,0.055,1.261,0.165c0.308,0.109,0.567,0.295,0.778,0.556
	s0.316,0.57,0.316,0.927c0,0.486-0.161,0.882-0.481,1.187c-0.321,0.305-0.774,0.457-1.36,0.457c-0.144,0-0.299-0.01-0.466-0.031
	S25.105,50.804,24.915,50.763z M24.915,50.513c0.155,0.029,0.293,0.051,0.413,0.066s0.223,0.022,0.308,0.022
	c0.305,0,0.567-0.118,0.789-0.354c0.221-0.236,0.332-0.542,0.332-0.917c0-0.258-0.053-0.497-0.158-0.718s-0.255-0.387-0.448-0.497
	c-0.193-0.109-0.413-0.165-0.659-0.165c-0.149,0-0.341,0.028-0.576,0.083V50.513z"/>
<path d="M31.873,47.92v2.355h1.31c0.34,0,0.567-0.051,0.681-0.154c0.152-0.135,0.237-0.372,0.255-0.712h0.163v2.074h-0.163
	c-0.041-0.29-0.082-0.476-0.123-0.558c-0.053-0.103-0.139-0.183-0.259-0.242s-0.305-0.088-0.554-0.088h-1.31v1.964
	c0,0.264,0.012,0.424,0.035,0.481c0.023,0.057,0.064,0.103,0.123,0.136c0.059,0.034,0.17,0.051,0.334,0.051h1.011
	c0.337,0,0.582-0.023,0.734-0.07s0.299-0.139,0.439-0.277c0.182-0.182,0.368-0.456,0.558-0.822h0.176l-0.514,1.494h-4.592v-0.163
	h0.211c0.141,0,0.274-0.034,0.4-0.101c0.094-0.047,0.157-0.117,0.191-0.211s0.051-0.286,0.051-0.576v-3.872
	c0-0.378-0.038-0.611-0.114-0.699c-0.105-0.117-0.281-0.176-0.527-0.176h-0.211v-0.163h4.592l0.066,1.305h-0.171
	c-0.062-0.313-0.129-0.529-0.205-0.646c-0.074-0.117-0.185-0.207-0.332-0.268c-0.117-0.044-0.324-0.066-0.62-0.066H31.873z"/>
<path d="M45.384,47.595h2.079v0.163h-0.114c-0.076,0-0.188,0.034-0.334,0.101s-0.28,0.164-0.4,0.29s-0.268,0.331-0.444,0.615
	l-1.437,2.263v1.494c0,0.366,0.041,0.595,0.123,0.686c0.111,0.123,0.287,0.185,0.527,0.185h0.193v0.163h-2.531v-0.163h0.211
	c0.252,0,0.431-0.076,0.536-0.229c0.064-0.094,0.097-0.308,0.097-0.642V51.11l-1.635-2.496c-0.193-0.293-0.325-0.476-0.394-0.549
	s-0.211-0.161-0.428-0.264c-0.059-0.029-0.144-0.044-0.255-0.044v-0.163h2.549v0.163h-0.132c-0.138,0-0.265,0.032-0.38,0.097
	s-0.173,0.161-0.173,0.29c0,0.105,0.089,0.296,0.268,0.571l1.244,1.92l1.169-1.837c0.176-0.275,0.264-0.48,0.264-0.615
	c0-0.082-0.021-0.155-0.064-0.22s-0.103-0.115-0.182-0.151s-0.198-0.055-0.356-0.055V47.595z"/>
<path d="M52.083,47.458c0.773,0,1.444,0.294,2.01,0.881c0.567,0.587,0.851,1.32,0.851,2.199c0,0.905-0.286,1.657-0.857,2.254
	s-1.263,0.896-2.074,0.896c-0.82,0-1.509-0.292-2.068-0.875c-0.558-0.583-0.837-1.337-0.837-2.263c0-0.946,0.322-1.718,0.967-2.316
	C50.634,47.718,51.304,47.458,52.083,47.458z M52,47.779c-0.533,0-0.961,0.198-1.283,0.593c-0.401,0.492-0.602,1.213-0.602,2.162
	c0,0.973,0.208,1.721,0.624,2.246c0.319,0.398,0.741,0.598,1.266,0.598c0.56,0,1.022-0.218,1.386-0.655
	c0.365-0.437,0.547-1.125,0.547-2.065c0-1.02-0.201-1.78-0.602-2.281C53.013,47.979,52.568,47.779,52,47.779z"/>
<path d="M61.294,47.757v-0.163h2.109v0.163H63.18c-0.234,0-0.415,0.098-0.541,0.294c-0.062,0.091-0.092,0.302-0.092,0.633v2.417
	c0,0.598-0.06,1.062-0.178,1.391c-0.119,0.33-0.352,0.613-0.699,0.849c-0.347,0.235-0.819,0.354-1.417,0.354
	c-0.65,0-1.144-0.113-1.481-0.338s-0.576-0.529-0.716-0.91c-0.094-0.261-0.141-0.75-0.141-1.468v-2.329
	c0-0.366-0.051-0.606-0.151-0.721c-0.102-0.114-0.265-0.171-0.49-0.171h-0.224v-0.163h2.575v0.163h-0.229
	c-0.246,0-0.422,0.078-0.527,0.233c-0.073,0.105-0.11,0.325-0.11,0.659v2.597c0,0.231,0.021,0.497,0.063,0.795
	s0.12,0.532,0.231,0.699s0.271,0.305,0.481,0.413s0.467,0.163,0.771,0.163c0.39,0,0.738-0.085,1.046-0.255s0.518-0.387,0.631-0.652
	c0.112-0.265,0.169-0.714,0.169-1.347v-2.413c0-0.372-0.041-0.605-0.123-0.699c-0.114-0.129-0.284-0.193-0.51-0.193H61.294z"/>
<path d="M71.292,53.554h-1.591l-2.017-2.786c-0.149,0.006-0.271,0.009-0.365,0.009c-0.038,0-0.079,0-0.123-0.002
	s-0.089-0.004-0.136-0.007v1.731c0,0.375,0.041,0.608,0.123,0.699c0.111,0.129,0.278,0.193,0.501,0.193h0.233v0.163h-2.553v-0.163
	h0.224c0.252,0,0.432-0.082,0.541-0.246c0.062-0.091,0.092-0.306,0.092-0.646v-3.85c0-0.375-0.041-0.608-0.123-0.699
	c-0.114-0.129-0.284-0.193-0.51-0.193h-0.224v-0.163h2.171c0.633,0,1.099,0.046,1.4,0.139c0.3,0.092,0.555,0.262,0.765,0.51
	c0.209,0.248,0.314,0.542,0.314,0.885c0,0.366-0.12,0.684-0.358,0.954c-0.239,0.27-0.609,0.46-1.11,0.571l1.23,1.709
	c0.281,0.393,0.523,0.653,0.725,0.782s0.466,0.211,0.791,0.246V53.554z M67.061,50.491c0.056,0,0.104,0.001,0.145,0.002
	s0.075,0.002,0.101,0.002c0.568,0,0.997-0.123,1.286-0.369c0.288-0.246,0.433-0.56,0.433-0.94c0-0.372-0.116-0.675-0.35-0.907
	c-0.232-0.233-0.541-0.35-0.925-0.35c-0.17,0-0.4,0.028-0.69,0.083V50.491z"/>
<path d="M82.829,47.595l0.066,1.397h-0.167c-0.032-0.246-0.076-0.422-0.132-0.527c-0.091-0.17-0.212-0.295-0.362-0.376
	c-0.151-0.08-0.35-0.121-0.596-0.121h-0.839v4.553c0,0.366,0.04,0.595,0.119,0.686c0.111,0.123,0.283,0.185,0.514,0.185h0.207v0.163
	h-2.527v-0.163h0.211c0.252,0,0.431-0.076,0.536-0.229c0.064-0.094,0.097-0.308,0.097-0.642v-4.553h-0.716
	c-0.278,0-0.476,0.021-0.593,0.062c-0.152,0.056-0.283,0.163-0.391,0.321s-0.173,0.372-0.193,0.642h-0.167l0.07-1.397H82.829z"/>
<path d="M88.469,51.559h-2.307l-0.404,0.94c-0.1,0.231-0.149,0.404-0.149,0.519c0,0.091,0.043,0.171,0.13,0.239
	c0.086,0.069,0.273,0.114,0.56,0.134v0.163h-1.876v-0.163c0.249-0.044,0.41-0.101,0.483-0.171c0.149-0.141,0.315-0.426,0.497-0.857
	l2.096-4.904h0.154l2.074,4.957c0.167,0.398,0.319,0.657,0.455,0.776c0.137,0.118,0.326,0.185,0.569,0.2v0.163h-2.351v-0.163
	c0.237-0.012,0.398-0.051,0.481-0.119c0.084-0.067,0.125-0.149,0.125-0.246c0-0.129-0.059-0.333-0.176-0.611L88.469,51.559z
	 M88.346,51.233l-1.011-2.408l-1.037,2.408H88.346z"/>
<path d="M96.372,47.458v2.061h-0.163c-0.053-0.396-0.147-0.71-0.283-0.945c-0.137-0.234-0.331-0.42-0.583-0.558
	s-0.513-0.207-0.782-0.207c-0.305,0-0.557,0.093-0.756,0.279c-0.199,0.187-0.299,0.398-0.299,0.635c0,0.182,0.063,0.347,0.189,0.497
	c0.182,0.22,0.614,0.513,1.296,0.879c0.557,0.299,0.937,0.528,1.14,0.688c0.204,0.16,0.36,0.348,0.471,0.565
	c0.109,0.217,0.165,0.444,0.165,0.681c0,0.451-0.175,0.84-0.525,1.167c-0.351,0.327-0.801,0.49-1.352,0.49
	c-0.173,0-0.335-0.013-0.488-0.04c-0.091-0.015-0.279-0.068-0.565-0.16c-0.285-0.093-0.466-0.139-0.542-0.139
	c-0.073,0-0.131,0.022-0.173,0.066c-0.043,0.044-0.074,0.135-0.095,0.272h-0.163v-2.043h0.163c0.076,0.428,0.179,0.748,0.308,0.96
	c0.129,0.213,0.326,0.389,0.591,0.53s0.556,0.211,0.873,0.211c0.366,0,0.655-0.097,0.868-0.29s0.319-0.422,0.319-0.686
	c0-0.146-0.041-0.294-0.121-0.444c-0.081-0.149-0.206-0.289-0.376-0.417c-0.114-0.088-0.426-0.275-0.936-0.56
	c-0.51-0.286-0.873-0.514-1.087-0.684c-0.216-0.17-0.379-0.357-0.49-0.562s-0.167-0.431-0.167-0.677
	c0-0.428,0.164-0.796,0.492-1.105c0.328-0.309,0.746-0.463,1.252-0.463c0.316,0,0.652,0.078,1.006,0.233
	c0.164,0.073,0.28,0.11,0.347,0.11c0.076,0,0.138-0.022,0.187-0.068c0.048-0.045,0.087-0.137,0.116-0.275H96.372z"/>
<path d="M104.366,47.595l0.066,1.397h-0.168c-0.031-0.246-0.076-0.422-0.131-0.527c-0.092-0.17-0.213-0.295-0.363-0.376
	c-0.15-0.08-0.35-0.121-0.596-0.121h-0.839v4.553c0,0.366,0.04,0.595,0.118,0.686c0.111,0.123,0.283,0.185,0.515,0.185h0.206v0.163
	h-2.526v-0.163h0.211c0.252,0,0.431-0.076,0.536-0.229c0.064-0.094,0.097-0.308,0.097-0.642v-4.553h-0.716
	c-0.279,0-0.477,0.021-0.594,0.062c-0.152,0.056-0.283,0.163-0.391,0.321c-0.109,0.158-0.174,0.372-0.193,0.642h-0.168l0.07-1.397
	H104.366z"/>
<path d="M108.445,47.92v2.355h1.31c0.34,0,0.566-0.051,0.682-0.154c0.152-0.135,0.236-0.372,0.254-0.712h0.163v2.074h-0.163
	c-0.041-0.29-0.082-0.476-0.123-0.558c-0.053-0.103-0.139-0.183-0.259-0.242s-0.305-0.088-0.554-0.088h-1.31v1.964
	c0,0.264,0.012,0.424,0.035,0.481c0.023,0.057,0.064,0.103,0.123,0.136c0.059,0.034,0.17,0.051,0.334,0.051h1.011
	c0.337,0,0.582-0.023,0.734-0.07s0.299-0.139,0.439-0.277c0.182-0.182,0.367-0.456,0.558-0.822h0.176l-0.515,1.494h-4.592v-0.163
	h0.211c0.141,0,0.273-0.034,0.4-0.101c0.094-0.047,0.156-0.117,0.19-0.211s0.051-0.286,0.051-0.576v-3.872
	c0-0.378-0.038-0.611-0.114-0.699c-0.105-0.117-0.281-0.176-0.527-0.176h-0.211v-0.163h4.592l0.066,1.305h-0.172
	c-0.061-0.313-0.129-0.529-0.204-0.646c-0.074-0.117-0.185-0.207-0.331-0.268c-0.117-0.044-0.324-0.066-0.62-0.066H108.445z"/>
<path d="M114.356,52.701c0.139,0,0.254,0.048,0.348,0.143c0.094,0.096,0.141,0.21,0.141,0.345s-0.048,0.25-0.143,0.345
	c-0.096,0.095-0.211,0.143-0.346,0.143s-0.25-0.048-0.344-0.143c-0.096-0.095-0.144-0.21-0.144-0.345
	c0-0.138,0.048-0.253,0.144-0.347C114.106,52.748,114.222,52.701,114.356,52.701z"/>
</svg>
