<?xml version="1.0" encoding="utf-8"?>
<!-- Generator: Adobe Illustrator 14.0.0, SVG Export Plug-In  -->
<!DOCTYPE svg PUBLIC "-//W3C//DTD SVG 1.1//EN" "http://www.w3.org/Graphics/SVG/1.1/DTD/svg11.dtd" [
	<!ENTITY ns_flows "http://ns.adobe.com/Flows/1.0/">
]>
<svg version="1.1"
	 xmlns="http://www.w3.org/2000/svg" xmlns:xlink="http://www.w3.org/1999/xlink" xmlns:a="http://ns.adobe.com/AdobeSVGViewerExtensions/3.0/"
	 x="0px" y="0px" width="1px" height="681px" viewBox="0 0 1 681" enable-background="new 0 0 1 681" xml:space="preserve">
<defs>
</defs>
<g>
	<g>
		<g>
			<g>
				<g>
					<polygon fill="#2E2E2E" points="1.375,680.714 1.412,680.396 1.309,679.561 					"/>
					<path fill="#2E2E2E" d="M1.144,675.24c-0.019,0.159-0.05,0.08-0.069,0.245l0.297,3.217
						C1.539,677.265,1.031,676.185,1.144,675.24z"/>
					<path fill="#2E2E2E" d="M1.174,674.292c0.069-1.248-0.069-1.765-0.117-2.056C1.164,672.671,1.023,674.561,1.174,674.292z"/>
					<path fill="#2E2E2E" d="M1.104,564.46l0.009,0.386C1.118,564.651,1.113,564.528,1.104,564.46z"/>
					<path fill="#2E2E2E" d="M0.632,535.806l-0.111-0.3c0.198,5.346-0.003,11.376,0.084,17.034l-0.04-0.386
						c-0.043,14.349,0.143,27.585,0.228,41.817c-0.013-0.22-0.045-0.294-0.058-0.526c0.038,0.688,0.109,1.45,0.1,2.221
						c-0.024,0.202-0.052-0.214-0.062-0.465c-0.184,3.009,0.116,8.832-0.025,10.71c0.02,0.847,0.097,1.22,0.154,0.749
						c0.047,11.141,0.082,23.062,0.227,34.414c-0.025,0.544-0.075,0.642-0.139,0.495c0.298,9.7,0.179,19.866,0.131,29.793
						c0.078,0.379,0.083-1.016,0.164-0.037c0.098-3.192-0.192-5.844-0.049-8.74l0.075,0.373c0.049-2.104-0.19-0.428-0.093-2.611
						c0.062-0.862,0.096,0.214,0.102-0.184c-0.031-4.478,0.037-9.145-0.146-13.358c0.164-1.043,0.006-4.811,0.162-6.465
						c-0.064-1.156-0.048-2.318-0.156-2.759c0.086-15.664-0.072-31.67-0.061-47.713c-0.317-7.512,0.062-16.502-0.045-25.417
						c0.011-0.062,0.023-0.052,0.032,0.009c-0.078-2.905-0.115-7.138-0.075-10.605l-0.135-2.938
						c0.276-20.866,0.082-42.194,0.196-63.387c0.08-24.086,0.308-45.185-0.11-68.638c0.031,0.031,0.049-0.159,0.061,0.447
						c-0.063-6.771,0.05-12.936-0.016-19.312l0.031,0.021c-0.262-15.817,0.034-32.924-0.247-48.172
						c0.028-18.563,0-39.555-0.081-59.2l0.063,0.046c-0.133-15.722,0.2-30.915,0.1-46.604c0.144-16.129-0.36-33.175-0.169-49.445
						c0.309-10.064-0.354-23.285-0.033-32.741c0.482-19.425,0.172-38.27-0.117-57.692c0.172-17.918-0.27-35.805,0.081-53.154
						c-0.225-8.223,0.278-17.303,0.214-26.453l-0.078,0.331c0.236-3.285-0.331-7.321,0.021-9.371l0.016,0.349
						c0.179-1.74-0.42-4.04-0.208-5.095l-0.088-0.281c-0.025-2.107,0.1-0.251,0.135-1.875c-0.011-0.611-0.16-0.232-0.109-1.507
						c0.36-0.275-0.078-5.156,0.326-5.303c0,1.153,0.157-1.804,0.242,0.783c0.041-0.737,0.021-4.263-0.15-3.948
						C0.79,0.411,0.631-0.965,0.49,1.179L0.623,1.61C0.49,2.332,0.557,2.161,0.457,2.417C0.439,5.219,0.246,5.592,0.166,7.604
						l0.015-0.012c0.159,1.376,0.065,3.272,0.042,4.361l-0.074,0.434c-0.154,0.661,0.303,3.187,0.037,2.336
						c0.065,5.694,0.062,12.227,0.065,18.588c0.102,0.893-0.009,4.875,0.186,3.483c-0.222,1.593-0.277,6.327-0.27,8.089
						c-0.021-0.067-0.044-0.141-0.036-0.416c-0.287,3.41,0.267,4.043-0.085,7.239c0.248,0.499-0.08,5.807,0.212,7.618
						c-0.055,0.392-0.104,0.526-0.148,0.379c-0.005,5.755-0.096,12.116-0.106,16.985c0.218,4.159-0.099,10.074,0.202,13.652
						c-0.063,2.966-0.189,7.762-0.068,11.902L0.1,101.838c0.018,4.673,0.033,10.505,0.223,13.707
						c-0.288,1.382-0.231,3.4-0.322,5.419c0.133,3.119,0.094,9.413,0.215,14.168c-0.133,0.731,0.057,3.924-0.137,4.168
						c0.373,13.331,0.243,29.811-0.039,44.044l-0.014-0.208c0.105,1.847,0.34,3.976,0.477,5.856
						c-0.017,0.187-0.048,0.162-0.048-0.229c0.036,2.6-0.153,5.027-0.118,7.627c-0.032-0.024-0.032-0.024-0.062-0.443
						c0.086,2.438-0.154,5.037-0.005,7.912l-0.051,0.159l0.071,1.829c-0.063-0.043-0.16-0.113-0.139-1.089
						c-0.062,22.315,0.269,45.353,0.221,68.265l-0.061-0.838l0.108,4.44c-0.032-0.024-0.048-0.232-0.062-0.446
						c-0.108,5.657,0.072,11.532,0.045,17.046c-0.031-0.024-0.093-0.859-0.128-0.085c0.174,4.08-0.227,6.557,0.135,8.6
						c-0.017,0.189-0.098,0.321-0.127-0.095c0.12,11.361,0.113,23.025,0.055,34.469c0.327,9.529,0.031,20.184,0.291,30.08
						l-0.065-0.049c0.229,12.82-0.016,26.417,0.029,39.701c-0.025,5.517,0.052,9.242,0.056,14.783l-0.081,0.141
						c0.31,9.331-0.278,19.612,0.062,29.346l-0.11-0.673c0.171,1.511-0.061,5.89,0.232,5.315l-0.089,1.719
						c0.388,6.612-0.179,12.037,0.073,20.141l-0.07-0.532c0.055,2.153,0.098,4.667,0.033,6.263c-0.01-0.251-0.03-0.135-0.049-0.648
						c-0.275,6.752,0.029,14.263,0.019,21.383l-0.13-0.808c0.152,3.443,0.011,9.756,0.08,14.282l-0.061-0.275l0.086,2.287
						l-0.123,0.062C0.512,524.518,0.617,530.059,0.632,535.806z"/>
					<path fill="#2E2E2E" d="M0.771,595.202l0.004-0.062C0.765,594.963,0.766,595.048,0.771,595.202z"/>
					<path fill="#2E2E2E" d="M0.142,8.326l0.024-0.722C0.142,7.659,0.146,8.093,0.142,8.326z"/>
				</g>
			</g>
		</g>
	</g>
</g>
</svg>
